<svg viewBox="0 0 753 400" xmlns="http://www.w3.org/2000/svg"><g><g><g><g><g><line x1="58.59375" y1="377.828125" x2="53.59375" y2="377.828125" style="visibility: inherit;" fill="rgb(0, 0, 0)" stroke="rgb(204, 204, 204)" stroke-width="1px"></line><line x1="58.59375" y1="335.84722222222223" x2="53.59375" y2="335.84722222222223" style="visibility: inherit;" fill="rgb(0, 0, 0)" stroke="rgb(204, 204, 204)" stroke-width="1px"></line><line x1="58.59375" y1="293.86631944444446" x2="53.59375" y2="293.86631944444446" style="visibility: inherit;" fill="rgb(0, 0, 0)" stroke="rgb(204, 204, 204)" stroke-width="1px"></line><line x1="58.59375" y1="251.88541666666669" x2="53.59375" y2="251.88541666666669" style="visibility: inherit;" fill="rgb(0, 0, 0)" stroke="rgb(204, 204, 204)" stroke-width="1px"></line><line x1="58.59375" y1="209.90451388888889" x2="53.59375" y2="209.90451388888889" style="visibility: inherit;" fill="rgb(0, 0, 0)" stroke="rgb(204, 204, 204)" stroke-width="1px"></line><line x1="58.59375" y1="167.92361111111111" x2="53.59375" y2="167.92361111111111" style="visibility: inherit;" fill="rgb(0, 0, 0)" stroke="rgb(204, 204, 204)" stroke-width="1px"></line><line x1="58.59375" y1="125.94270833333334" x2="53.59375" y2="125.94270833333334" style="visibility: inherit;" fill="rgb(0, 0, 0)" stroke="rgb(204, 204, 204)" stroke-width="1px"></line><line x1="58.59375" y1="83.96180555555554" x2="53.59375" y2="83.96180555555554" style="visibility: inherit;" fill="rgb(0, 0, 0)" stroke="rgb(204, 204, 204)" stroke-width="1px"></line><line x1="58.59375" y1="41.98090277777777" x2="53.59375" y2="41.98090277777777" style="visibility: inherit;" fill="rgb(0, 0, 0)" stroke="rgb(204, 204, 204)" stroke-width="1px"></line><line x1="58.59375" y1="0" x2="53.59375" y2="0" style="visibility: inherit;" fill="rgb(0, 0, 0)" stroke="rgb(204, 204, 204)" stroke-width="1px"></line></g><g transform="translate(48.59375, 0)"><text style="text-anchor: end; visibility: hidden; font-family: &quot;Helvetica Neue&quot;, sans-serif; font-size: 12px; font-weight: 200;" x="0" y="377.828125" dx="0em" dy="0.3em" fill="rgb(50, 49, 63)" stroke="none" stroke-width="1px">0.955</text><text style="text-anchor: end; visibility: inherit; font-family: &quot;Helvetica Neue&quot;, sans-serif; font-size: 12px; font-weight: 200;" x="0" y="335.84722222222223" dx="0em" dy="0.3em" fill="rgb(50, 49, 63)" stroke="none" stroke-width="1px">0.960</text><text style="text-anchor: end; visibility: inherit; font-family: &quot;Helvetica Neue&quot;, sans-serif; font-size: 12px; font-weight: 200;" x="0" y="293.86631944444446" dx="0em" dy="0.3em" fill="rgb(50, 49, 63)" stroke="none" stroke-width="1px">0.965</text><text style="text-anchor: end; visibility: inherit; font-family: &quot;Helvetica Neue&quot;, sans-serif; font-size: 12px; font-weight: 200;" x="0" y="251.88541666666669" dx="0em" dy="0.3em" fill="rgb(50, 49, 63)" stroke="none" stroke-width="1px">0.970</text><text style="text-anchor: end; visibility: inherit; font-family: &quot;Helvetica Neue&quot;, sans-serif; font-size: 12px; font-weight: 200;" x="0" y="209.90451388888889" dx="0em" dy="0.3em" fill="rgb(50, 49, 63)" stroke="none" stroke-width="1px">0.975</text><text style="text-anchor: end; visibility: inherit; font-family: &quot;Helvetica Neue&quot;, sans-serif; font-size: 12px; font-weight: 200;" x="0" y="167.92361111111111" dx="0em" dy="0.3em" fill="rgb(50, 49, 63)" stroke="none" stroke-width="1px">0.980</text><text style="text-anchor: end; visibility: inherit; font-family: &quot;Helvetica Neue&quot;, sans-serif; font-size: 12px; font-weight: 200;" x="0" y="125.94270833333334" dx="0em" dy="0.3em" fill="rgb(50, 49, 63)" stroke="none" stroke-width="1px">0.985</text><text style="text-anchor: end; visibility: inherit; font-family: &quot;Helvetica Neue&quot;, sans-serif; font-size: 12px; font-weight: 200;" x="0" y="83.96180555555554" dx="0em" dy="0.3em" fill="rgb(50, 49, 63)" stroke="none" stroke-width="1px">0.990</text><text style="text-anchor: end; visibility: inherit; font-family: &quot;Helvetica Neue&quot;, sans-serif; font-size: 12px; font-weight: 200;" x="0" y="41.98090277777777" dx="0em" dy="0.3em" fill="rgb(50, 49, 63)" stroke="none" stroke-width="1px">0.995</text><text style="text-anchor: end; visibility: hidden; font-family: &quot;Helvetica Neue&quot;, sans-serif; font-size: 12px; font-weight: 200;" x="0" y="0" dx="0em" dy="0.3em" fill="rgb(50, 49, 63)" stroke="none" stroke-width="1px">1.00</text></g><line x1="58.59375" y1="0" x2="58.59375" y2="377.828125" fill="rgb(0, 0, 0)" stroke="rgb(204, 204, 204)" stroke-width="1px"></line></g></g><g transform="translate(58, 0)" clip-path="url(#clip_0)"><clipPath id="clip_0"><rect width="694" height="377"></rect></clipPath><g><g><g><line x1="0" y1="0" x2="0" y2="377.828125" fill="rgb(0, 0, 0)" stroke="rgb(60, 60, 60)" stroke-width="1px" opacity="0.25"></line><line x1="77.15625" y1="0" x2="77.15625" y2="377.828125" fill="rgb(0, 0, 0)" stroke="rgb(60, 60, 60)" stroke-width="1px" opacity="0.25"></line><line x1="154.3125" y1="0" x2="154.3125" y2="377.828125" fill="rgb(0, 0, 0)" stroke="rgb(60, 60, 60)" stroke-width="1px" opacity="0.25"></line><line x1="231.46875" y1="0" x2="231.46875" y2="377.828125" fill="rgb(0, 0, 0)" stroke="rgb(60, 60, 60)" stroke-width="1px" opacity="0.25"></line><line x1="308.625" y1="0" x2="308.625" y2="377.828125" fill="rgb(0, 0, 0)" stroke="rgb(60, 60, 60)" stroke-width="1px" opacity="0.25"></line><line x1="385.78125" y1="0" x2="385.78125" y2="377.828125" fill="rgb(0, 0, 0)" stroke="rgb(60, 60, 60)" stroke-width="1px" opacity="0.25"></line><line x1="462.9375" y1="0" x2="462.9375" y2="377.828125" fill="rgb(0, 0, 0)" stroke="rgb(60, 60, 60)" stroke-width="1px" opacity="0.25"></line><line x1="540.09375" y1="0" x2="540.09375" y2="377.828125" fill="rgb(0, 0, 0)" stroke="rgb(60, 60, 60)" stroke-width="1px" opacity="0.25"></line><line x1="617.25" y1="0" x2="617.25" y2="377.828125" fill="rgb(0, 0, 0)" stroke="rgb(60, 60, 60)" stroke-width="1px" opacity="0.25"></line><line x1="694.40625" y1="0" x2="694.40625" y2="377.828125" fill="rgb(0, 0, 0)" stroke="rgb(60, 60, 60)" stroke-width="1px" opacity="0.25"></line></g><g><line x1="0" y1="377.828125" x2="694.40625" y2="377.828125" fill="rgb(0, 0, 0)" stroke="rgb(60, 60, 60)" stroke-width="1px" opacity="0.25"></line><line x1="0" y1="335.84722222222223" x2="694.40625" y2="335.84722222222223" fill="rgb(0, 0, 0)" stroke="rgb(60, 60, 60)" stroke-width="1px" opacity="0.25"></line><line x1="0" y1="293.86631944444446" x2="694.40625" y2="293.86631944444446" fill="rgb(0, 0, 0)" stroke="rgb(60, 60, 60)" stroke-width="1px" opacity="0.25"></line><line x1="0" y1="251.88541666666669" x2="694.40625" y2="251.88541666666669" fill="rgb(0, 0, 0)" stroke="rgb(60, 60, 60)" stroke-width="1px" opacity="0.25"></line><line x1="0" y1="209.90451388888889" x2="694.40625" y2="209.90451388888889" fill="rgb(0, 0, 0)" stroke="rgb(60, 60, 60)" stroke-width="1px" opacity="0.25"></line><line x1="0" y1="167.92361111111111" x2="694.40625" y2="167.92361111111111" fill="rgb(0, 0, 0)" stroke="rgb(60, 60, 60)" stroke-width="1px" opacity="0.25"></line><line x1="0" y1="125.94270833333334" x2="694.40625" y2="125.94270833333334" fill="rgb(0, 0, 0)" stroke="rgb(60, 60, 60)" stroke-width="1px" opacity="0.25"></line><line x1="0" y1="83.96180555555554" x2="694.40625" y2="83.96180555555554" fill="rgb(0, 0, 0)" stroke="rgb(60, 60, 60)" stroke-width="1px" opacity="0.25"></line><line x1="0" y1="41.98090277777777" x2="694.40625" y2="41.98090277777777" fill="rgb(0, 0, 0)" stroke="rgb(60, 60, 60)" stroke-width="1px" opacity="0.25"></line><line x1="0" y1="0" x2="694.40625" y2="0" fill="rgb(0, 0, 0)" stroke="rgb(60, 60, 60)" stroke-width="1px" opacity="0.25"></line></g></g></g><g><g><line x1="0" y1="8396.180555555547" x2="694.40625" y2="8396.180555555547" fill="rgb(0, 0, 0)" stroke="rgb(153, 153, 153)" stroke-width="1.5px"></line></g></g><g><g><line x1="77.15625" y1="0" x2="77.15625" y2="377.828125" fill="rgb(0, 0, 0)" stroke="rgb(153, 153, 153)" stroke-width="1.5px"></line></g></g><g><g><g><g><g><path style="fill: none;" stroke="rgb(204, 51, 17)" stroke-width="2px" d="M79.4709375,256.08346290472457L81.785625,200.66848386906898L84.1003125,184.7160963341592L86.41499999999999,151.97106343176617L88.7296875,200.66848386906898L91.044375,159.52737850861402L93.35906250000001,163.7256649633247L95.67375,108.31068592766911L97.98843749999999,151.97106343176617L100.303125,151.13130605055213L102.6178125,120.90504484044169L104.9325,137.6971897565655L107.2471875,136.01817544549692L109.56187499999999,118.38627314815909L111.8765625,157.0086068163314L114.19125,100.75437085082126L116.5059375,106.6316716166005L118.82062499999999,116.706758385731L121.13531250000001,115.0277440746624L123.45,121.74480222165573L125.7646875,149.45179128812404L128.079375,104.11239947295843L130.3940625,170.44222265895854L132.70875,137.6971897565655L135.0234375,104.95215685417242L137.338125,107.47092854645507L139.65281249999998,111.66921500116581L141.9675,148.6125343582695L144.2821875,146.93301959584142L146.596875,125.94258822500694L148.9115625,119.2255300780136L151.22625,98.23509870717913L153.5409375,120.0652874592277L155.855625,106.6316716166005L158.1703125,129.3011172985036L160.48499999999999,117.54651576694505L162.7996875,125.1033312951524L165.114375,197.3104552469318L167.4290625,146.0937626659869L169.74375,106.6316716166005L172.0584375,102.43338516188982L174.37312500000002,134.33866068306884L176.68781249999998,128.4613599172896L179.0025,130.14087467971763L181.31718750000002,129.3011172985036L183.63187499999998,117.54651576694505L185.9465625,97.39584177732462L188.26125000000002,130.14087467971763L190.57593749999998,117.54651576694505L192.890625,91.51854101154532L195.2053125,79.76393947998679L197.52,76.40541040649009L199.8346875,70.5281096407108L202.149375,74.725895644062L204.4640625,78.92418209877269L206.77874999999997,76.40541040649009L209.0934375,79.76393947998679L211.408125,74.725895644062L213.72281249999997,79.76393947998679L216.0375,78.0844247175587L218.3521875,78.92418209877269L220.666875,80.6031964098413L222.9815625,79.76393947998679L225.29625,75.5656530252761L227.6109375,83.1219681021239L229.92562500000003,81.44295379105534L232.2403125,79.76393947998679L234.555,79.76393947998679L236.86968749999997,83.1219681021239L239.184375,78.92418209877269L241.4990625,74.725895644062L243.81375,82.28271117226939L246.12843750000002,86.4804971756206L248.44312499999998,79.76393947998679L250.7578125,82.28271117226939L253.07250000000002,79.76393947998679L255.38718749999998,81.44295379105534L257.70187500000003,83.1219681021239L260.0165625,78.0844247175587L262.33125,83.1219681021239L264.6459375,81.44295379105534L266.960625,79.76393947998679L269.2753125,83.961725483338L271.59000000000003,78.92418209877269L273.90468749999997,86.4804971756206L276.219375,83.961725483338L278.5340625,79.76393947998679L280.84875,78.92418209877269L283.1634375,82.28271117226939L285.478125,79.76393947998679L287.7928125,78.92418209877269L290.1075,75.5656530252761L292.4221875,79.76393947998679L294.736875,83.1219681021239L297.0515625,84.80148286455199L299.36625,81.44295379105534L301.6809375,86.4804971756206L303.995625,87.32025455683464L306.3103125,95.71632701489654L308.625,80.6031964098413L310.9396875,80.6031964098413L313.25437500000004,82.28271117226939L315.5690625,82.28271117226939L317.88375,83.961725483338L320.1984375,83.961725483338L322.513125,82.28271117226939L324.8278125,83.1219681021239L327.1425,82.28271117226939L329.4571875,83.961725483338L331.771875,83.1219681021239L334.0865625,82.28271117226939L336.40125,79.76393947998679L338.7159375,84.80148286455199L341.030625,82.28271117226939L343.34531250000003,78.92418209877269L345.65999999999997,83.961725483338L347.97468749999996,81.44295379105534L350.289375,83.1219681021239L352.6040625,83.1219681021239L354.91875,82.28271117226939L357.23343750000004,83.1219681021239L359.548125,83.1219681021239L361.86281249999996,82.28271117226939L364.1775,85.64124024576603L366.4921875,79.76393947998679L368.806875,84.80148286455199L371.12156250000004,81.44295379105534L373.43625000000003,82.28271117226939L375.75093749999996,82.28271117226939L378.06562499999995,83.961725483338L380.3803125,83.1219681021239L382.695,83.961725483338L385.0096875,80.6031964098413L387.32437500000003,83.1219681021239L389.6390625,83.961725483338L391.95374999999996,82.28271117226939L394.26843750000006,82.28271117226939L396.583125,83.1219681021239L398.8978125,79.76393947998679L401.2125,82.28271117226939L403.5271875,79.76393947998679L405.841875,78.92418209877269L408.15656249999995,83.1219681021239L410.47125,83.1219681021239L412.7859375,78.0844247175587L415.100625,83.1219681021239L417.4153125,83.961725483338L419.73,81.44295379105534L422.0446875,80.6031964098413L424.35937500000006,81.44295379105534L426.6740625,82.28271117226939L428.98875,82.28271117226939L431.3034375,82.28271117226939L433.618125,83.1219681021239L435.9328125,83.1219681021239L438.24749999999995,83.1219681021239L440.56218750000005,83.1219681021239L442.876875,83.1219681021239L445.1915625,83.1219681021239L447.50625,82.28271117226939L449.8209375,83.1219681021239L452.135625,83.1219681021239L454.45031250000005,83.1219681021239L456.765,81.44295379105534L459.0796875,83.1219681021239L461.39437499999997,82.28271117226939L463.7090625,83.1219681021239L466.02375,83.1219681021239L468.3384375,83.1219681021239L470.65312500000005,83.1219681021239L472.9678125,83.1219681021239L475.28249999999997,83.1219681021239L477.5971875,83.1219681021239L479.911875,83.1219681021239L482.2265625,83.1219681021239L484.54125000000005,83.1219681021239L486.85593750000004,81.44295379105534L489.170625,83.1219681021239L491.48531249999996,83.1219681021239L493.8,83.1219681021239L496.1146875,83.1219681021239L498.429375,83.1219681021239L500.74406250000004,83.1219681021239L503.05875,82.28271117226939L505.37343749999997,81.44295379105534L507.688125,83.1219681021239L510.0028125,83.1219681021239L512.3175,81.44295379105534L514.6321875,83.1219681021239L516.946875,82.28271117226939L519.2615625,83.1219681021239L521.57625,83.1219681021239L523.8909375000001,83.1219681021239L526.2056249999999,82.28271117226939L528.5203124999999,82.28271117226939L530.835,83.1219681021239L533.1496875,81.44295379105534L535.464375,82.28271117226939L537.7790625,81.44295379105534L540.09375,81.44295379105534L542.4084375,81.44295379105534L544.723125,82.28271117226939L547.0378125,82.28271117226939L549.3525,82.28271117226939L551.6671875,82.28271117226939L553.9818750000001,82.28271117226939L556.2965625,82.28271117226939L558.6112499999999,82.28271117226939L560.9259375,83.1219681021239L563.240625,83.1219681021239L565.5553125,83.1219681021239L567.87,83.1219681021239L570.1846875,83.1219681021239L572.499375,83.1219681021239L574.8140625,83.1219681021239L577.12875,83.1219681021239L579.4434375,83.1219681021239L581.758125,83.1219681021239L584.0728125,83.1219681021239L586.3875,83.1219681021239L588.7021874999999,83.1219681021239L591.016875,83.1219681021239L593.3315625,83.1219681021239L595.64625,83.1219681021239L597.9609375,83.1219681021239L600.275625,83.1219681021239L602.5903125,83.1219681021239L604.905,83.1219681021239L607.2196875,83.1219681021239L609.534375,83.1219681021239L611.8490625,83.1219681021239L614.16375,83.1219681021239L616.4784375,83.1219681021239L618.793125,83.1219681021239L621.1078125,83.1219681021239L623.4225,83.1219681021239L625.7371875,83.1219681021239L628.051875,83.1219681021239L630.3665625,83.1219681021239L632.68125,83.1219681021239L634.9959375,83.1219681021239L637.3106250000001,83.1219681021239L639.6253125,83.1219681021239L641.9399999999999,83.1219681021239L644.2546875,83.1219681021239L646.569375,83.1219681021239L648.8840625,83.1219681021239L651.19875,83.1219681021239L653.5134375,83.1219681021239L655.828125,83.1219681021239" fill="none"></path></g><g><path style="fill: none;" stroke="rgb(0, 119, 187)" stroke-width="2px" d="M79.4709375,264.47953536278646L81.785625,196.47069786571777L84.1003125,155.32909205390334L86.41499999999999,146.0937626659869L88.7296875,161.2068932710421L91.044375,177.15928080595185L93.35906250000001,139.3767045189936L95.67375,148.6125343582695L97.98843749999999,144.41424790355882L100.303125,176.3200238760973L102.6178125,127.622102987435L104.9325,206.54628508620775L107.2471875,119.2255300780136L109.56187499999999,117.54651576694505L111.8765625,125.94258822500694L114.19125,119.2255300780136L116.5059375,181.35756726066253L118.82062499999999,132.65964637200028L121.13531250000001,169.602965729104L123.45,108.31068592766911L125.7646875,129.3011172985036L128.079375,125.94258822500694L130.3940625,95.71632701489654L132.70875,153.65007774283472L135.0234375,100.75437085082126L137.338125,135.17841806428288L139.65281249999998,104.95215685417242L141.9675,130.98063206093167L144.2821875,151.13130605055213L146.596875,154.4898351240488L148.9115625,122.5840591515103L151.22625,103.27314254310386L153.5409375,121.74480222165573L155.855625,98.23509870717913L158.1703125,104.11239947295843L160.48499999999999,148.6125343582695L162.7996875,106.6316716166005L165.114375,142.7352335924902L167.4290625,115.86750145587649L169.74375,114.18798669344841L172.0584375,109.15044330888315L174.37312500000002,116.706758385731L176.68781249999998,115.0277440746624L179.0025,116.706758385731L181.31718750000002,102.43338516188982L183.63187499999998,120.0652874592277L185.9465625,104.95215685417242L188.26125000000002,118.38627314815909L190.57593749999998,114.18798669344841L192.890625,132.65964637200028L195.2053125,68.84859487828271L197.52,71.36736657056537L199.8346875,65.49006580478613L202.149375,66.32982318600011L204.4640625,68.00883749706873L206.77874999999997,66.32982318600011L209.0934375,68.00883749706873L211.408125,67.16958056721415L213.72281249999997,73.04688133299345L216.0375,70.5281096407108L218.3521875,78.0844247175587L220.666875,66.32982318600011L222.9815625,69.68835225949681L225.29625,72.20712395177941L227.6109375,74.725895644062L229.92562500000003,67.16958056721415L232.2403125,62.97129411250347L234.555,76.40541040649009L236.86968749999997,78.92418209877269L239.184375,73.88663871420749L241.4990625,73.88663871420749L243.81375,68.00883749706873L246.12843750000002,79.76393947998679L248.44312499999998,82.28271117226939L250.7578125,77.24466733634466L253.07250000000002,73.88663871420749L255.38718749999998,67.16958056721415L257.70187500000003,71.36736657056537L260.0165625,77.24466733634466L262.33125,76.40541040649009L264.6459375,70.5281096407108L266.960625,75.5656530252761L269.2753125,71.36736657056537L271.59000000000003,72.20712395177941L273.90468749999997,76.40541040649009L276.219375,78.92418209877269L278.5340625,71.36736657056537L280.84875,68.84859487828271L283.1634375,76.40541040649009L285.478125,68.84859487828271L287.7928125,78.0844247175587L290.1075,88.16001193804868L292.4221875,76.40541040649009L294.736875,78.92418209877269L297.0515625,78.92418209877269L299.36625,85.64124024576603L301.6809375,83.1219681021239L303.995625,76.40541040649009L306.3103125,77.24466733634466L308.625,75.5656530252761L310.9396875,76.40541040649009L313.25437500000004,73.04688133299345L315.5690625,76.40541040649009L317.88375,74.725895644062L320.1984375,71.36736657056537L322.513125,73.88663871420749L324.8278125,72.20712395177941L327.1425,76.40541040649009L329.4571875,71.36736657056537L331.771875,73.88663871420749L334.0865625,74.725895644062L336.40125,76.40541040649009L338.7159375,72.20712395177941L341.030625,71.36736657056537L343.34531250000003,73.04688133299345L345.65999999999997,73.88663871420749L347.97468749999996,76.40541040649009L350.289375,73.04688133299345L352.6040625,71.36736657056537L354.91875,73.88663871420749L357.23343750000004,73.88663871420749L359.548125,73.04688133299345L361.86281249999996,74.725895644062L364.1775,72.20712395177941L366.4921875,71.36736657056537L368.806875,72.20712395177941L371.12156250000004,72.20712395177941L373.43625000000003,74.725895644062L375.75093749999996,74.725895644062L378.06562499999995,73.88663871420749L380.3803125,73.88663871420749L382.695,72.20712395177941L385.0096875,70.5281096407108L387.32437500000003,73.04688133299345L389.6390625,74.725895644062L391.95374999999996,73.88663871420749L394.26843750000006,72.20712395177941L396.583125,73.04688133299345L398.8978125,73.88663871420749L401.2125,72.20712395177941L403.5271875,72.20712395177941L405.841875,73.04688133299345L408.15656249999995,78.0844247175587L410.47125,73.04688133299345L412.7859375,68.84859487828271L415.100625,73.04688133299345L417.4153125,73.88663871420749L419.73,73.04688133299345L422.0446875,73.04688133299345L424.35937500000006,73.88663871420749L426.6740625,72.20712395177941L428.98875,72.20712395177941L431.3034375,73.04688133299345L433.618125,73.04688133299345L435.9328125,72.20712395177941L438.24749999999995,72.20712395177941L440.56218750000005,72.20712395177941L442.876875,72.20712395177941L445.1915625,72.20712395177941L447.50625,73.04688133299345L449.8209375,72.20712395177941L452.135625,71.36736657056537L454.45031250000005,71.36736657056537L456.765,71.36736657056537L459.0796875,72.20712395177941L461.39437499999997,72.20712395177941L463.7090625,71.36736657056537L466.02375,72.20712395177941L468.3384375,72.20712395177941L470.65312500000005,72.20712395177941L472.9678125,72.20712395177941L475.28249999999997,71.36736657056537L477.5971875,71.36736657056537L479.911875,72.20712395177941L482.2265625,72.20712395177941L484.54125000000005,71.36736657056537L486.85593750000004,71.36736657056537L489.170625,72.20712395177941L491.48531249999996,72.20712395177941L493.8,71.36736657056537L496.1146875,71.36736657056537L498.429375,71.36736657056537L500.74406250000004,71.36736657056537L503.05875,72.20712395177941L505.37343749999997,72.20712395177941L507.688125,71.36736657056537L510.0028125,71.36736657056537L512.3175,71.36736657056537L514.6321875,71.36736657056537L516.946875,72.20712395177941L519.2615625,71.36736657056537L521.57625,72.20712395177941L523.8909375000001,71.36736657056537L526.2056249999999,71.36736657056537L528.5203124999999,72.20712395177941L530.835,72.20712395177941L533.1496875,72.20712395177941L535.464375,72.20712395177941L537.7790625,71.36736657056537L540.09375,71.36736657056537L542.4084375,71.36736657056537L544.723125,71.36736657056537L547.0378125,71.36736657056537L549.3525,71.36736657056537L551.6671875,71.36736657056537L553.9818750000001,71.36736657056537L556.2965625,71.36736657056537L558.6112499999999,71.36736657056537L560.9259375,71.36736657056537L563.240625,71.36736657056537L565.5553125,71.36736657056537L567.87,71.36736657056537L570.1846875,71.36736657056537L572.499375,71.36736657056537L574.8140625,71.36736657056537L577.12875,71.36736657056537L579.4434375,71.36736657056537L581.758125,71.36736657056537L584.0728125,71.36736657056537L586.3875,71.36736657056537L588.7021874999999,71.36736657056537L591.016875,71.36736657056537L593.3315625,71.36736657056537L595.64625,71.36736657056537L597.9609375,71.36736657056537L600.275625,71.36736657056537L602.5903125,71.36736657056537L604.905,71.36736657056537L607.2196875,71.36736657056537L609.534375,71.36736657056537L611.8490625,71.36736657056537L614.16375,71.36736657056537L616.4784375,71.36736657056537L618.793125,71.36736657056537L621.1078125,71.36736657056537L623.4225,71.36736657056537L625.7371875,71.36736657056537L628.051875,71.36736657056537L630.3665625,71.36736657056537L632.68125,71.36736657056537L634.9959375,71.36736657056537L637.3106250000001,71.36736657056537L639.6253125,71.36736657056537L641.9399999999999,71.36736657056537L644.2546875,71.36736657056537L646.569375,71.36736657056537L648.8840625,71.36736657056537L651.19875,71.36736657056537L653.5134375,71.36736657056537L655.828125,71.36736657056537" fill="none"></path></g><g><path style="fill: none;" stroke="rgb(255, 112, 67)" stroke-width="2px" d="M79.4709375,317.3757427061595L81.785625,259.44199197822127L84.1003125,155.32909205390334L86.41499999999999,135.17841806428288L88.7296875,139.3767045189936L91.044375,193.1121687922211L93.35906250000001,117.54651576694505L95.67375,118.38627314815909L97.98843749999999,114.18798669344841L100.303125,132.65964637200028L102.6178125,126.78234560622099L104.9325,102.43338516188982L107.2471875,109.15044330888315L109.56187499999999,97.39584177732462L111.8765625,94.87707008504196L114.19125,109.9902006900972L116.5059375,116.706758385731L118.82062499999999,154.4898351240488L121.13531250000001,132.65964637200028L123.45,115.0277440746624L125.7646875,126.78234560622099L128.079375,115.86750145587649L130.3940625,122.5840591515103L132.70875,120.0652874592277L135.0234375,151.13130605055213L137.338125,132.65964637200028L139.65281249999998,109.9902006900972L141.9675,114.18798669344841L144.2821875,103.27314254310386L146.596875,127.622102987435L148.9115625,122.5840591515103L151.22625,117.54651576694505L153.5409375,124.26357391393839L155.855625,125.1033312951524L158.1703125,111.66921500116581L160.48499999999999,99.91461346960722L162.7996875,115.86750145587649L165.114375,113.34822931223437L167.4290625,128.4613599172896L169.74375,104.11239947295843L172.0584375,105.79191423538651L174.37312500000002,106.6316716166005L176.68781249999998,114.18798669344841L179.0025,113.34822931223437L181.31718750000002,131.8198889907862L183.63187499999998,99.91461346960722L185.9465625,92.35779794139984L188.26125000000002,107.47092854645507L190.57593749999998,104.11239947295843L192.890625,120.0652874592277L195.2053125,82.28271117226939L197.52,78.0844247175587L199.8346875,83.1219681021239L202.149375,78.92418209877269L204.4640625,81.44295379105534L206.77874999999997,84.80148286455199L209.0934375,83.961725483338L211.408125,83.961725483338L213.72281249999997,72.20712395177941L216.0375,77.24466733634466L218.3521875,79.76393947998679L220.666875,78.92418209877269L222.9815625,80.6031964098413L225.29625,79.76393947998679L227.6109375,82.28271117226939L229.92562500000003,78.92418209877269L232.2403125,77.24466733634466L234.555,75.5656530252761L236.86968749999997,80.6031964098413L239.184375,80.6031964098413L241.4990625,73.88663871420749L243.81375,80.6031964098413L246.12843750000002,77.24466733634466L248.44312499999998,82.28271117226939L250.7578125,73.04688133299345L253.07250000000002,83.961725483338L255.38718749999998,79.76393947998679L257.70187500000003,78.92418209877269L260.0165625,79.76393947998679L262.33125,83.961725483338L264.6459375,78.92418209877269L266.960625,85.64124024576603L269.2753125,77.24466733634466L271.59000000000003,79.76393947998679L273.90468749999997,87.32025455683464L276.219375,82.28271117226939L278.5340625,97.39584177732462L280.84875,77.24466733634466L283.1634375,83.1219681021239L285.478125,84.80148286455199L287.7928125,85.64124024576603L290.1075,77.24466733634466L292.4221875,87.32025455683464L294.736875,79.76393947998679L297.0515625,73.88663871420749L299.36625,88.9992688679032L301.6809375,77.24466733634466L303.995625,88.9992688679032L306.3103125,83.1219681021239L308.625,73.88663871420749L310.9396875,78.92418209877269L313.25437500000004,78.0844247175587L315.5690625,78.92418209877269L317.88375,75.5656530252761L320.1984375,76.40541040649009L322.513125,74.725895644062L324.8278125,74.725895644062L327.1425,76.40541040649009L329.4571875,75.5656530252761L331.771875,73.88663871420749L334.0865625,75.5656530252761L336.40125,75.5656530252761L338.7159375,76.40541040649009L341.030625,76.40541040649009L343.34531250000003,78.92418209877269L345.65999999999997,77.24466733634466L347.97468749999996,77.24466733634466L350.289375,79.76393947998679L352.6040625,76.40541040649009L354.91875,76.40541040649009L357.23343750000004,78.92418209877269L359.548125,75.5656530252761L361.86281249999996,76.40541040649009L364.1775,75.5656530252761L366.4921875,76.40541040649009L368.806875,77.24466733634466L371.12156250000004,74.725895644062L373.43625000000003,76.40541040649009L375.75093749999996,77.24466733634466L378.06562499999995,78.0844247175587L380.3803125,77.24466733634466L382.695,75.5656530252761L385.0096875,78.0844247175587L387.32437500000003,78.0844247175587L389.6390625,75.5656530252761L391.95374999999996,75.5656530252761L394.26843750000006,75.5656530252761L396.583125,80.6031964098413L398.8978125,75.5656530252761L401.2125,75.5656530252761L403.5271875,77.24466733634466L405.841875,75.5656530252761L408.15656249999995,78.92418209877269L410.47125,78.92418209877269L412.7859375,73.88663871420749L415.100625,77.24466733634466L417.4153125,78.92418209877269L419.73,73.88663871420749L422.0446875,75.5656530252761L424.35937500000006,77.24466733634466L426.6740625,76.40541040649009L428.98875,78.0844247175587L431.3034375,77.24466733634466L433.618125,77.24466733634466L435.9328125,77.24466733634466L438.24749999999995,77.24466733634466L440.56218750000005,78.0844247175587L442.876875,77.24466733634466L445.1915625,76.40541040649009L447.50625,74.725895644062L449.8209375,75.5656530252761L452.135625,76.40541040649009L454.45031250000005,75.5656530252761L456.765,76.40541040649009L459.0796875,77.24466733634466L461.39437499999997,76.40541040649009L463.7090625,77.24466733634466L466.02375,75.5656530252761L468.3384375,75.5656530252761L470.65312500000005,75.5656530252761L472.9678125,75.5656530252761L475.28249999999997,76.40541040649009L477.5971875,76.40541040649009L479.911875,76.40541040649009L482.2265625,75.5656530252761L484.54125000000005,76.40541040649009L486.85593750000004,76.40541040649009L489.170625,76.40541040649009L491.48531249999996,76.40541040649009L493.8,74.725895644062L496.1146875,75.5656530252761L498.429375,78.0844247175587L500.74406250000004,77.24466733634466L503.05875,76.40541040649009L505.37343749999997,76.40541040649009L507.688125,75.5656530252761L510.0028125,75.5656530252761L512.3175,75.5656530252761L514.6321875,75.5656530252761L516.946875,76.40541040649009L519.2615625,76.40541040649009L521.57625,75.5656530252761L523.8909375000001,76.40541040649009L526.2056249999999,76.40541040649009L528.5203124999999,77.24466733634466L530.835,75.5656530252761L533.1496875,76.40541040649009L535.464375,77.24466733634466L537.7790625,76.40541040649009L540.09375,75.5656530252761L542.4084375,75.5656530252761L544.723125,75.5656530252761L547.0378125,75.5656530252761L549.3525,75.5656530252761L551.6671875,75.5656530252761L553.9818750000001,75.5656530252761L556.2965625,76.40541040649009L558.6112499999999,75.5656530252761L560.9259375,76.40541040649009L563.240625,76.40541040649009L565.5553125,76.40541040649009L567.87,76.40541040649009L570.1846875,76.40541040649009L572.499375,76.40541040649009L574.8140625,76.40541040649009L577.12875,76.40541040649009L579.4434375,76.40541040649009L581.758125,76.40541040649009L584.0728125,76.40541040649009L586.3875,76.40541040649009L588.7021874999999,76.40541040649009L591.016875,76.40541040649009L593.3315625,76.40541040649009L595.64625,76.40541040649009L597.9609375,76.40541040649009L600.275625,76.40541040649009L602.5903125,75.5656530252761L604.905,76.40541040649009L607.2196875,76.40541040649009L609.534375,76.40541040649009L611.8490625,76.40541040649009L614.16375,76.40541040649009L616.4784375,76.40541040649009L618.793125,76.40541040649009L621.1078125,76.40541040649009L623.4225,76.40541040649009L625.7371875,76.40541040649009L628.051875,76.40541040649009L630.3665625,76.40541040649009L632.68125,76.40541040649009L634.9959375,76.40541040649009L637.3106250000001,76.40541040649009L639.6253125,76.40541040649009L641.9399999999999,76.40541040649009L644.2546875,76.40541040649009L646.569375,76.40541040649009L648.8840625,75.5656530252761L651.19875,76.40541040649009L653.5134375,76.40541040649009L655.828125,76.40541040649009" fill="none"></path></g></g></g></g></g></g><g transform="translate(58, 377)" clip-path="url(#clip_1)"><clipPath id="clip_1"><rect width="694" height="22"></rect></clipPath><g><g><line x1="0" y1="0" x2="0" y2="5" style="visibility: inherit;" fill="rgb(0, 0, 0)" stroke="rgb(204, 204, 204)" stroke-width="1px"></line><line x1="77.15625" y1="0" x2="77.15625" y2="5" style="visibility: inherit;" fill="rgb(0, 0, 0)" stroke="rgb(204, 204, 204)" stroke-width="1px"></line><line x1="154.3125" y1="0" x2="154.3125" y2="5" style="visibility: inherit;" fill="rgb(0, 0, 0)" stroke="rgb(204, 204, 204)" stroke-width="1px"></line><line x1="231.46875" y1="0" x2="231.46875" y2="5" style="visibility: inherit;" fill="rgb(0, 0, 0)" stroke="rgb(204, 204, 204)" stroke-width="1px"></line><line x1="308.625" y1="0" x2="308.625" y2="5" style="visibility: inherit;" fill="rgb(0, 0, 0)" stroke="rgb(204, 204, 204)" stroke-width="1px"></line><line x1="385.78125" y1="0" x2="385.78125" y2="5" style="visibility: inherit;" fill="rgb(0, 0, 0)" stroke="rgb(204, 204, 204)" stroke-width="1px"></line><line x1="462.9375" y1="0" x2="462.9375" y2="5" style="visibility: inherit;" fill="rgb(0, 0, 0)" stroke="rgb(204, 204, 204)" stroke-width="1px"></line><line x1="540.09375" y1="0" x2="540.09375" y2="5" style="visibility: inherit;" fill="rgb(0, 0, 0)" stroke="rgb(204, 204, 204)" stroke-width="1px"></line><line x1="617.25" y1="0" x2="617.25" y2="5" style="visibility: inherit;" fill="rgb(0, 0, 0)" stroke="rgb(204, 204, 204)" stroke-width="1px"></line><line x1="694.40625" y1="0" x2="694.40625" y2="5" style="visibility: inherit;" fill="rgb(0, 0, 0)" stroke="rgb(204, 204, 204)" stroke-width="1px"></line></g><g transform="translate(0, 8)"><text style="text-anchor: middle; visibility: hidden; font-family: &quot;Helvetica Neue&quot;, sans-serif; font-size: 12px; font-weight: 200;" x="0" y="0" dx="0em" dy="0.95em" fill="rgb(50, 49, 63)" stroke="none" stroke-width="1px">-20.00k</text><text style="text-anchor: middle; visibility: inherit; font-family: &quot;Helvetica Neue&quot;, sans-serif; font-size: 12px; font-weight: 200;" x="77.15625" y="0" dx="0em" dy="0.95em" fill="rgb(50, 49, 63)" stroke="none" stroke-width="1px">0.000</text><text style="text-anchor: middle; visibility: inherit; font-family: &quot;Helvetica Neue&quot;, sans-serif; font-size: 12px; font-weight: 200;" x="154.3125" y="0" dx="0em" dy="0.95em" fill="rgb(50, 49, 63)" stroke="none" stroke-width="1px">20.00k</text><text style="text-anchor: middle; visibility: inherit; font-family: &quot;Helvetica Neue&quot;, sans-serif; font-size: 12px; font-weight: 200;" x="231.46875" y="0" dx="0em" dy="0.95em" fill="rgb(50, 49, 63)" stroke="none" stroke-width="1px">40.00k</text><text style="text-anchor: middle; visibility: inherit; font-family: &quot;Helvetica Neue&quot;, sans-serif; font-size: 12px; font-weight: 200;" x="308.625" y="0" dx="0em" dy="0.95em" fill="rgb(50, 49, 63)" stroke="none" stroke-width="1px">60.00k</text><text style="text-anchor: middle; visibility: inherit; font-family: &quot;Helvetica Neue&quot;, sans-serif; font-size: 12px; font-weight: 200;" x="385.78125" y="0" dx="0em" dy="0.95em" fill="rgb(50, 49, 63)" stroke="none" stroke-width="1px">80.00k</text><text style="text-anchor: middle; visibility: inherit; font-family: &quot;Helvetica Neue&quot;, sans-serif; font-size: 12px; font-weight: 200;" x="462.9375" y="0" dx="0em" dy="0.95em" fill="rgb(50, 49, 63)" stroke="none" stroke-width="1px">100.0k</text><text style="text-anchor: middle; visibility: inherit; font-family: &quot;Helvetica Neue&quot;, sans-serif; font-size: 12px; font-weight: 200;" x="540.09375" y="0" dx="0em" dy="0.95em" fill="rgb(50, 49, 63)" stroke="none" stroke-width="1px">120.0k</text><text style="text-anchor: middle; visibility: inherit; font-family: &quot;Helvetica Neue&quot;, sans-serif; font-size: 12px; font-weight: 200;" x="617.25" y="0" dx="0em" dy="0.95em" fill="rgb(50, 49, 63)" stroke="none" stroke-width="1px">140.0k</text><text style="text-anchor: middle; visibility: hidden; font-family: &quot;Helvetica Neue&quot;, sans-serif; font-size: 12px; font-weight: 200;" x="694.40625" y="0" dx="0em" dy="0.95em" fill="rgb(50, 49, 63)" stroke="none" stroke-width="1px">160.0k</text></g><line x1="0" y1="0" x2="694.40625" y2="0" fill="rgb(0, 0, 0)" stroke="rgb(204, 204, 204)" stroke-width="1px"></line></g></g></g></g></svg>