<svg viewBox="0 0 753 400" xmlns="http://www.w3.org/2000/svg"><g><g><g><g><g><line x1="68.3125" y1="377.828125" x2="63.3125" y2="377.828125" style="visibility: inherit;" fill="rgb(0, 0, 0)" stroke="rgb(204, 204, 204)" stroke-width="1px"></line><line x1="68.3125" y1="346.3424479166667" x2="63.3125" y2="346.3424479166667" style="visibility: inherit;" fill="rgb(0, 0, 0)" stroke="rgb(204, 204, 204)" stroke-width="1px"></line><line x1="68.3125" y1="314.8567708333333" x2="63.3125" y2="314.8567708333333" style="visibility: inherit;" fill="rgb(0, 0, 0)" stroke="rgb(204, 204, 204)" stroke-width="1px"></line><line x1="68.3125" y1="283.37109375" x2="63.3125" y2="283.37109375" style="visibility: inherit;" fill="rgb(0, 0, 0)" stroke="rgb(204, 204, 204)" stroke-width="1px"></line><line x1="68.3125" y1="251.88541666666669" x2="63.3125" y2="251.88541666666669" style="visibility: inherit;" fill="rgb(0, 0, 0)" stroke="rgb(204, 204, 204)" stroke-width="1px"></line><line x1="68.3125" y1="220.39973958333334" x2="63.3125" y2="220.39973958333334" style="visibility: inherit;" fill="rgb(0, 0, 0)" stroke="rgb(204, 204, 204)" stroke-width="1px"></line><line x1="68.3125" y1="188.91406250000003" x2="63.3125" y2="188.91406250000003" style="visibility: inherit;" fill="rgb(0, 0, 0)" stroke="rgb(204, 204, 204)" stroke-width="1px"></line><line x1="68.3125" y1="157.42838541666669" x2="63.3125" y2="157.42838541666669" style="visibility: inherit;" fill="rgb(0, 0, 0)" stroke="rgb(204, 204, 204)" stroke-width="1px"></line><line x1="68.3125" y1="125.9427083333334" x2="63.3125" y2="125.9427083333334" style="visibility: inherit;" fill="rgb(0, 0, 0)" stroke="rgb(204, 204, 204)" stroke-width="1px"></line><line x1="68.3125" y1="94.45703125000006" x2="63.3125" y2="94.45703125000006" style="visibility: inherit;" fill="rgb(0, 0, 0)" stroke="rgb(204, 204, 204)" stroke-width="1px"></line><line x1="68.3125" y1="62.971354166666686" x2="63.3125" y2="62.971354166666686" style="visibility: inherit;" fill="rgb(0, 0, 0)" stroke="rgb(204, 204, 204)" stroke-width="1px"></line><line x1="68.3125" y1="31.48567708333337" x2="63.3125" y2="31.48567708333337" style="visibility: inherit;" fill="rgb(0, 0, 0)" stroke="rgb(204, 204, 204)" stroke-width="1px"></line><line x1="68.3125" y1="0" x2="63.3125" y2="0" style="visibility: inherit;" fill="rgb(0, 0, 0)" stroke="rgb(204, 204, 204)" stroke-width="1px"></line></g><g transform="translate(58.3125, 0)"><text style="text-anchor: end; visibility: hidden; font-family: &quot;Helvetica Neue&quot;, sans-serif; font-size: 12px; font-weight: 200;" x="0" y="377.828125" dx="0em" dy="0.3em" fill="rgb(50, 49, 63)" stroke="none" stroke-width="1px">-0.100</text><text style="text-anchor: end; visibility: inherit; font-family: &quot;Helvetica Neue&quot;, sans-serif; font-size: 12px; font-weight: 200;" x="0" y="346.3424479166667" dx="0em" dy="0.3em" fill="rgb(50, 49, 63)" stroke="none" stroke-width="1px">0.00</text><text style="text-anchor: end; visibility: inherit; font-family: &quot;Helvetica Neue&quot;, sans-serif; font-size: 12px; font-weight: 200;" x="0" y="314.8567708333333" dx="0em" dy="0.3em" fill="rgb(50, 49, 63)" stroke="none" stroke-width="1px">0.100</text><text style="text-anchor: end; visibility: inherit; font-family: &quot;Helvetica Neue&quot;, sans-serif; font-size: 12px; font-weight: 200;" x="0" y="283.37109375" dx="0em" dy="0.3em" fill="rgb(50, 49, 63)" stroke="none" stroke-width="1px">0.200</text><text style="text-anchor: end; visibility: inherit; font-family: &quot;Helvetica Neue&quot;, sans-serif; font-size: 12px; font-weight: 200;" x="0" y="251.88541666666669" dx="0em" dy="0.3em" fill="rgb(50, 49, 63)" stroke="none" stroke-width="1px">0.300</text><text style="text-anchor: end; visibility: inherit; font-family: &quot;Helvetica Neue&quot;, sans-serif; font-size: 12px; font-weight: 200;" x="0" y="220.39973958333334" dx="0em" dy="0.3em" fill="rgb(50, 49, 63)" stroke="none" stroke-width="1px">0.400</text><text style="text-anchor: end; visibility: inherit; font-family: &quot;Helvetica Neue&quot;, sans-serif; font-size: 12px; font-weight: 200;" x="0" y="188.91406250000003" dx="0em" dy="0.3em" fill="rgb(50, 49, 63)" stroke="none" stroke-width="1px">0.500</text><text style="text-anchor: end; visibility: inherit; font-family: &quot;Helvetica Neue&quot;, sans-serif; font-size: 12px; font-weight: 200;" x="0" y="157.42838541666669" dx="0em" dy="0.3em" fill="rgb(50, 49, 63)" stroke="none" stroke-width="1px">0.600</text><text style="text-anchor: end; visibility: inherit; font-family: &quot;Helvetica Neue&quot;, sans-serif; font-size: 12px; font-weight: 200;" x="0" y="125.9427083333334" dx="0em" dy="0.3em" fill="rgb(50, 49, 63)" stroke="none" stroke-width="1px">0.700</text><text style="text-anchor: end; visibility: inherit; font-family: &quot;Helvetica Neue&quot;, sans-serif; font-size: 12px; font-weight: 200;" x="0" y="94.45703125000006" dx="0em" dy="0.3em" fill="rgb(50, 49, 63)" stroke="none" stroke-width="1px">0.800</text><text style="text-anchor: end; visibility: inherit; font-family: &quot;Helvetica Neue&quot;, sans-serif; font-size: 12px; font-weight: 200;" x="0" y="62.971354166666686" dx="0em" dy="0.3em" fill="rgb(50, 49, 63)" stroke="none" stroke-width="1px">0.900</text><text style="text-anchor: end; visibility: inherit; font-family: &quot;Helvetica Neue&quot;, sans-serif; font-size: 12px; font-weight: 200;" x="0" y="31.48567708333337" dx="0em" dy="0.3em" fill="rgb(50, 49, 63)" stroke="none" stroke-width="1px">1.00</text><text style="text-anchor: end; visibility: hidden; font-family: &quot;Helvetica Neue&quot;, sans-serif; font-size: 12px; font-weight: 200;" x="0" y="0" dx="0em" dy="0.3em" fill="rgb(50, 49, 63)" stroke="none" stroke-width="1px">1.10</text></g><line x1="68.3125" y1="0" x2="68.3125" y2="377.828125" fill="rgb(0, 0, 0)" stroke="rgb(204, 204, 204)" stroke-width="1px"></line></g></g><g transform="translate(68, 0)" clip-path="url(#clip_0)"><clipPath id="clip_0"><rect width="684" height="377"></rect></clipPath><g><g><g><line x1="0" y1="0" x2="0" y2="377.828125" fill="rgb(0, 0, 0)" stroke="rgb(60, 60, 60)" stroke-width="1px" opacity="0.25"></line><line x1="57.057291666666664" y1="0" x2="57.057291666666664" y2="377.828125" fill="rgb(0, 0, 0)" stroke="rgb(60, 60, 60)" stroke-width="1px" opacity="0.25"></line><line x1="114.11458333333333" y1="0" x2="114.11458333333333" y2="377.828125" fill="rgb(0, 0, 0)" stroke="rgb(60, 60, 60)" stroke-width="1px" opacity="0.25"></line><line x1="171.171875" y1="0" x2="171.171875" y2="377.828125" fill="rgb(0, 0, 0)" stroke="rgb(60, 60, 60)" stroke-width="1px" opacity="0.25"></line><line x1="228.22916666666666" y1="0" x2="228.22916666666666" y2="377.828125" fill="rgb(0, 0, 0)" stroke="rgb(60, 60, 60)" stroke-width="1px" opacity="0.25"></line><line x1="285.28645833333337" y1="0" x2="285.28645833333337" y2="377.828125" fill="rgb(0, 0, 0)" stroke="rgb(60, 60, 60)" stroke-width="1px" opacity="0.25"></line><line x1="342.34375" y1="0" x2="342.34375" y2="377.828125" fill="rgb(0, 0, 0)" stroke="rgb(60, 60, 60)" stroke-width="1px" opacity="0.25"></line><line x1="399.4010416666667" y1="0" x2="399.4010416666667" y2="377.828125" fill="rgb(0, 0, 0)" stroke="rgb(60, 60, 60)" stroke-width="1px" opacity="0.25"></line><line x1="456.4583333333333" y1="0" x2="456.4583333333333" y2="377.828125" fill="rgb(0, 0, 0)" stroke="rgb(60, 60, 60)" stroke-width="1px" opacity="0.25"></line><line x1="513.515625" y1="0" x2="513.515625" y2="377.828125" fill="rgb(0, 0, 0)" stroke="rgb(60, 60, 60)" stroke-width="1px" opacity="0.25"></line><line x1="570.5729166666667" y1="0" x2="570.5729166666667" y2="377.828125" fill="rgb(0, 0, 0)" stroke="rgb(60, 60, 60)" stroke-width="1px" opacity="0.25"></line><line x1="627.6302083333333" y1="0" x2="627.6302083333333" y2="377.828125" fill="rgb(0, 0, 0)" stroke="rgb(60, 60, 60)" stroke-width="1px" opacity="0.25"></line><line x1="684.6875" y1="0" x2="684.6875" y2="377.828125" fill="rgb(0, 0, 0)" stroke="rgb(60, 60, 60)" stroke-width="1px" opacity="0.25"></line></g><g><line x1="0" y1="377.828125" x2="684.6875" y2="377.828125" fill="rgb(0, 0, 0)" stroke="rgb(60, 60, 60)" stroke-width="1px" opacity="0.25"></line><line x1="0" y1="346.3424479166667" x2="684.6875" y2="346.3424479166667" fill="rgb(0, 0, 0)" stroke="rgb(60, 60, 60)" stroke-width="1px" opacity="0.25"></line><line x1="0" y1="314.8567708333333" x2="684.6875" y2="314.8567708333333" fill="rgb(0, 0, 0)" stroke="rgb(60, 60, 60)" stroke-width="1px" opacity="0.25"></line><line x1="0" y1="283.37109375" x2="684.6875" y2="283.37109375" fill="rgb(0, 0, 0)" stroke="rgb(60, 60, 60)" stroke-width="1px" opacity="0.25"></line><line x1="0" y1="251.88541666666669" x2="684.6875" y2="251.88541666666669" fill="rgb(0, 0, 0)" stroke="rgb(60, 60, 60)" stroke-width="1px" opacity="0.25"></line><line x1="0" y1="220.39973958333334" x2="684.6875" y2="220.39973958333334" fill="rgb(0, 0, 0)" stroke="rgb(60, 60, 60)" stroke-width="1px" opacity="0.25"></line><line x1="0" y1="188.91406250000003" x2="684.6875" y2="188.91406250000003" fill="rgb(0, 0, 0)" stroke="rgb(60, 60, 60)" stroke-width="1px" opacity="0.25"></line><line x1="0" y1="157.42838541666669" x2="684.6875" y2="157.42838541666669" fill="rgb(0, 0, 0)" stroke="rgb(60, 60, 60)" stroke-width="1px" opacity="0.25"></line><line x1="0" y1="125.9427083333334" x2="684.6875" y2="125.9427083333334" fill="rgb(0, 0, 0)" stroke="rgb(60, 60, 60)" stroke-width="1px" opacity="0.25"></line><line x1="0" y1="94.45703125000006" x2="684.6875" y2="94.45703125000006" fill="rgb(0, 0, 0)" stroke="rgb(60, 60, 60)" stroke-width="1px" opacity="0.25"></line><line x1="0" y1="62.971354166666686" x2="684.6875" y2="62.971354166666686" fill="rgb(0, 0, 0)" stroke="rgb(60, 60, 60)" stroke-width="1px" opacity="0.25"></line><line x1="0" y1="31.48567708333337" x2="684.6875" y2="31.48567708333337" fill="rgb(0, 0, 0)" stroke="rgb(60, 60, 60)" stroke-width="1px" opacity="0.25"></line><line x1="0" y1="0" x2="684.6875" y2="0" fill="rgb(0, 0, 0)" stroke="rgb(60, 60, 60)" stroke-width="1px" opacity="0.25"></line></g></g></g><g><g><line x1="0" y1="346.3424479166667" x2="684.6875" y2="346.3424479166667" fill="rgb(0, 0, 0)" stroke="rgb(153, 153, 153)" stroke-width="1.5px"></line></g></g><g><g><line x1="57.057291666666664" y1="0" x2="57.057291666666664" y2="377.828125" fill="rgb(0, 0, 0)" stroke="rgb(153, 153, 153)" stroke-width="1.5px"></line></g></g><g><g><g><g><g><path style="fill: none;" stroke="rgb(0, 153, 136)" stroke-width="2px" d="M59.288231770833335,195.02228403432918L61.519171875,155.22439012272906L63.75011197916667,150.37559822403517L65.98105208333334,129.87841796875003L68.2119921875,111.74266124268377L70.44293229166666,129.18573073080432L72.67387239583333,116.21363738753524L74.90481249999999,101.47833504760644L77.13575260416667,104.62689975323161L79.36669270833333,92.15858577098703L81.5976328125,103.02112649862346L83.82857291666667,103.24154404426616L86.05951302083334,101.00604658837744L88.29045312500001,113.28547146062681L90.52139322916668,98.70760486274963L92.75233333333334,111.93158788653096L94.98327343749999,102.54885680632049L97.21421354166667,113.19101752216619L99.44515364583333,107.96439110270393L101.67609374999999,101.60427988786256L103.90703385416667,153.83901564683768L106.13797395833333,124.71477335287881L108.3689140625,100.37634115402278L110.59985416666667,90.93062827022129L112.83079427083334,89.32487378253916L115.061734375,99.77810785453772L117.29267447916668,93.63839541841304L119.52361458333334,111.2703915503808L121.7545546875,95.40160441507277L123.98549479166668,106.45307178655645L126.21643489583333,101.91913260503986L128.447375,145.40086148508516L130.67831510416667,106.2011821060442L132.90925520833332,130.22476158772287L135.1401953125,96.15725468968355L137.37113541666668,104.78433549528324L139.60207552083332,124.65179154928776L141.833015625,100.75417567479116L144.06395572916668,104.2490839993892L146.29489583333333,95.62200319378951L148.5258359375,95.11822383276501L150.75677604166668,103.30450708093127L152.98771614583333,89.26189197894814L155.21865625,87.87651750305673L157.44959635416666,102.26547622401273L159.68053645833334,108.90894925423589L161.91147656249998,139.1666951104999L164.14241666666666,94.26811961969366L166.37335677083334,101.95062350683537L168.604296875,90.52132161458337L170.83523697916667,94.07921174277249L173.06617708333332,111.20740974678972L175.2971171875,87.90800840485224L177.52805729166664,110.7666121893563L179.75899739583335,105.69742151194566L181.9899375,99.02245757992694L184.22087760416667,86.23927211357909L186.45181770833332,96.4091443701958L188.6827578125,136.58487280256432L190.91369791666665,92.25303970944765L193.14463802083336,91.33995369278523L195.375578125,136.58487280256432L197.60651822916668,85.38914913358172L199.83745833333333,120.68459476546076L202.0683984375,101.50982594940194L204.29933854166666,97.03884980455047L206.5302786458333,212.37089020052616L208.76121875,162.62351342756304L210.99215885416666,220.08488498946343L213.22309895833334,156.57827369682494L215.4540390625,148.86427890788767L217.68497916666666,147.4159413953312L219.9159192708333,205.06621145068982L222.14685937500002,105.06769731066504L224.37779947916667,140.48908778280023L226.60873958333335,88.34880596228572L228.8396796875,69.07958320776629L231.07061979166667,65.55318398137274L233.30155989583332,64.32524524753296L235.53249999999997,63.160269550358294L237.76344010416668,62.6879810911293L239.99438020833333,62.43609141061705L242.2253203125,62.53054534907767L244.45626041666665,61.36558841882896L246.68720052083333,60.67290118088329L248.91814062499998,61.49153325908509L251.14908072916668,62.656490189333795L253.38002083333333,61.39707932062447L255.6109609375,61.80638597626239L257.8419010416667,62.05827565677464L260.07284114583337,63.31770529240998L262.30378125,62.62501805446425L264.53472135416666,61.585987197545705L266.76566145833334,62.56203625087318L268.99660156249996,63.66403014445683L271.2275416666667,63.91591982496908L273.4584817708333,64.64009796471032L275.689421875,64.98644158368313L277.92036197916667,63.69552104625234L280.15130208333335,68.26095112956443L282.38224218749997,66.18288941572735L284.6131822916667,66.15139851393184L286.8441223958333,65.6476379198333L289.0750625,65.89952760034555L291.3060026041667,64.64009796471032L293.53694270833336,66.30883425598347L295.7678828125,64.16780950548133L297.9988229166667,64.73455190317088L300.22976302083333,63.380668329075036L302.460703125,66.59221483829128L304.6916432291667,69.36294502314809L306.9225833333333,71.15762615467736L309.1535234375,66.30883425598347L311.38446354166666,66.30883425598347L313.61540364583334,64.16780950548133L315.84634375,64.48266222265863L318.0772838541667,64.10484646881628L320.3082239583333,67.47380995315814L322.5391640625,64.26226344394195L324.77010416666667,63.85295678830403L327.00104427083335,65.83654579675454L329.231984375,64.5456440262497L331.46292447916665,68.04055235084775L333.6938645833333,62.971361673437116L335.9248046875,65.04940462034824L338.1557447916667,64.57711616111925L340.3866848958333,65.71060095649841L342.617625,65.23833126419538L344.84856510416665,69.36294502314809L347.07950520833333,67.41082814956712L349.3104453125,67.3163742111065L351.5413854166666,68.26095112956443L353.7723255208333,65.39574823932105L356.00326562500004,69.61483470366034L358.2342057291667,64.89198764522257L360.46514583333334,67.53677298982325L362.6960859375,67.59975479341426L364.9270260416667,70.779810400835L367.1579661458333,70.87426433929556L369.38890625,64.32524524753296L371.61984635416667,71.66140551570186L373.85078645833335,63.69552104625234L376.08172656249997,66.84408575187751L378.31266666666664,68.1035153875128L380.5436067708333,64.79751493983599L382.77454687500006,65.96249063701066L385.0054869791666,63.7270119480479L387.23642708333335,69.11105534263584L389.46736718750003,65.74209185829392L391.6983072916667,63.06581561189773L393.92924739583333,65.67912882162886L396.1601875,64.0418646652252L398.3911276041667,64.26226344394195L400.6220677083333,57.650281315514235L402.8530078125,57.240955892950296L405.08394791666666,56.42234258167446L407.31488802083334,56.29639774141833L409.54582812499996,56.39085167987895L411.77676822916663,56.1389619993667L414.00770833333337,56.264906839622824L416.23864843750005,56.29639774141833L418.46958854166667,55.95005412244552L420.70052864583334,55.88707231885445L422.93146875,56.264906839622824L425.16240885416664,56.20192503603175L427.3933489583333,55.66667354013771L429.6242890625,55.91856322064996L431.8552291666667,55.603710503472655L434.0861692708333,55.79261838039383L436.317109375,55.855600183984905L438.54804947916665,55.66667354013771L440.7789895833334,55.66667354013771L443.00992968749995,56.1389619993667L445.2408697916667,55.41478385962546L447.47180989583336,55.50925656501204L449.70275000000004,55.8241092821894L451.93369010416666,55.98152625731507L454.16463020833334,55.91856322064996L456.3955703125,55.72965534372878L458.62651041666663,55.79261838039383L460.8574505208333,55.72965534372878L463.088390625,55.50925656501204L465.31933072916667,55.91856322064996L467.5502708333333,55.66667354013771L469.78121093749996,55.57221960167715L472.0121510416667,55.50925656501204L474.2430911458334,55.8241092821894L476.47403125,55.57221960167715L478.7049713541667,55.57221960167715L480.93591145833335,55.603710503472655L483.1668515625,55.8241092821894L485.39779166666665,56.42234258167446L487.6287317708333,55.79261838039383L489.859671875,56.57975955680013L492.0906119791666,55.57221960167715L494.3215520833333,55.603710503472655L496.5524921875,55.88707231885445L498.7834322916667,55.95005412244552L501.0143723958333,55.72965534372878L503.2453125,56.1389619993667L505.4762526041667,56.07599896270165L507.70719270833337,55.95005412244552L509.9381328125,55.8241092821894L512.1690729166667,55.855600183984905L514.4000130208334,56.10747109757119L516.630953125,56.013017159110575L518.8618932291666,56.04450806090608L521.0928333333334,55.47776566321653L523.3237734375,55.54072869988158L525.5547135416666,55.855600183984905L527.7856536458333,55.72965534372878L530.01659375,55.79261838039383L532.2475338541667,55.79261838039383L534.4784739583333,55.95005412244552L536.7094140625,56.04450806090608L538.9403541666667,56.42234258167446L541.1712942708334,56.04450806090608L543.4022343749999,56.04450806090608L545.6331744791667,56.39085167987895L547.8641145833334,55.41478385962546L550.0950546875,55.72965534372878L552.3259947916666,55.91856322064996L554.5569348958334,55.66667354013771L556.787875,55.57221960167715L559.0188151041666,56.42234258167446L561.2497552083333,55.50925656501204L563.4806953125,55.3203299211649L565.7116354166667,56.07599896270165L567.9425755208333,55.88707231885445L570.173515625,55.98152625731507L572.4044557291667,55.8241092821894L574.6353958333334,55.44627476142102L576.8663359375,55.72965534372878L579.0972760416666,55.38331172475591L581.3282161458334,55.25736688449979L583.55915625,55.41478385962546L585.7900963541666,55.25736688449979L588.0210364583334,55.22587598270428L590.2519765625,55.41478385962546L592.4829166666666,55.41478385962546L594.7138567708333,55.22587598270428L596.9447968750001,55.54072869988158L599.1757369791667,55.54072869988158L601.4066770833333,55.38331172475591L603.6376171875,55.761127478598326L605.8685572916667,55.38331172475591L608.0994973958334,55.50925656501204L610.3304375,55.25736688449979L612.5613776041666,55.25736688449979L614.7923177083334,55.603710503472655" fill="none"></path></g><g><path style="fill: none;" stroke="rgb(238, 51, 119)" stroke-width="2px" d="M59.288231770833335,206.42009502478567L61.519171875,147.00663473969328L63.75011197916667,158.65633541066202L65.98105208333334,122.0699692413522L68.2119921875,139.51303872947273L70.44293229166666,115.26906046907732L72.67387239583333,123.7072333977558L74.90481249999999,97.35372128865373L77.13575260416667,102.26547622401273L79.36669270833333,103.33599798272678L81.5976328125,103.80828644195577L83.82857291666667,109.28678377500427L86.05951302083334,93.19759786097961L88.29045312500001,106.67347056527313L90.52139322916668,99.74661695274216L92.75233333333334,100.1874332771016L94.98327343749999,103.96570341708144L97.21421354166667,90.7102294915046L99.44515364583333,89.73418043817708L101.67609374999999,103.83975857682532L103.90703385416667,126.4779635826126L106.13797395833333,102.04507744529599L108.3689140625,100.75417567479116L110.59985416666667,122.47927589699012L112.83079427083334,86.17629030998802L115.061734375,107.99586323757347L117.29267447916668,91.30846279098967L119.52361458333334,92.34749364790821L121.7545546875,89.0414932002314L123.98549479166668,201.94912826339717L126.21643489583333,97.76302794429165L128.447375,101.98211440863093L130.67831510416667,95.77943893584114L132.90925520833332,109.88501707448938L135.1401953125,85.51509397383785L137.37113541666668,113.69477811626473L139.60207552083332,101.85616956837481L141.833015625,95.05526079609996L144.06395572916668,86.61710663434746L146.29489583333333,95.52754925532889L148.5258359375,100.84862961325177L150.75677604166668,99.46325513736036L152.98771614583333,91.11955491406849L155.21865625,105.82336635220179L157.44959635416666,85.42064003537723L159.68053645833334,103.4619428229829L161.91147656249998,98.26680730531615L164.14241666666666,92.94572694739333L166.37335677083334,85.51509397383785L168.604296875,92.72532816867658L170.83523697916667,114.57637323113164L173.06617708333332,99.77810785453772L175.2971171875,314.8567703641602L177.52805729166664,96.47210740686086L179.75899739583335,87.46721084741881L181.9899375,94.29961052148917L184.22087760416667,212.6227798810384L186.45181770833332,87.81355446639168L188.6827578125,97.54262916557497L190.91369791666665,119.83449055238941L193.14463802083336,108.94044015603146L195.375578125,93.19759786097961L197.60651822916668,95.62200319378951L199.83745833333333,110.13690675500163L202.0683984375,88.66365867946303L204.29933854166666,83.3111061866706L206.5302786458333,148.80131587122258L208.76121875,125.02962607005614L210.99215885416666,96.31469043173519L213.22309895833334,102.9581634619584L215.4540390625,99.52621817402547L217.68497916666666,92.72532816867658L219.9159192708333,104.46948277810594L222.14685937500002,121.21986502828082L224.37779947916667,111.3963176237109L226.60873958333335,139.00925936844823L228.8396796875,66.68666877675184L231.07061979166667,62.12123869343975L233.30155989583332,60.76735511934385L235.53249999999997,59.539416385504126L237.76344010416668,58.78376611089334L239.99438020833333,59.22456366832682L242.2253203125,59.44496244704351L244.45626041666665,59.69685212755576L246.68720052083333,59.75981516422087L248.91814062499998,58.059587971152155L251.14908072916668,59.0986188280707L253.38002083333333,60.29506666011491L255.6109609375,59.98021394293755L257.8419010416667,59.539416385504126L260.07284114583337,61.05073570165166L262.30378125,60.01170484473312L264.53472135416666,60.5154654388316L266.76566145833334,61.14518964011222L268.99660156249996,60.26359452524537L271.2275416666667,60.29506666011491L273.4584817708333,61.46004235728958L275.689421875,60.26359452524537L277.92036197916667,60.04317697960266L280.15130208333335,62.184220497030765L282.38224218749997,62.373128373952L284.6131822916667,62.184220497030765L286.8441223958333,62.93987077164155L289.0750625,60.04317697960266L291.3060026041667,62.845416833180934L293.53694270833336,62.908379869846044L295.7678828125,63.56957620599621L297.9988229166667,61.55449629575014L300.22976302083333,61.8693490129275L302.460703125,63.66403014445683L304.6916432291667,63.7270119480479L306.9225833333333,63.34917742727953L309.1535234375,64.35671738240251L311.38446354166666,65.86803669855004L313.61540364583334,63.884447690099535L315.84634375,63.03432471010217L318.0772838541667,64.48266222265863L320.3082239583333,65.1438585588088L322.5391640625,64.29375434573745L324.77010416666667,62.31014657036093L327.00104427083335,62.43609141061705L329.231984375,64.57711616111925L331.46292447916665,62.21569263190031L333.6938645833333,66.56072393649572L335.9248046875,62.908379869846044L338.1557447916667,62.93987077164155L340.3866848958333,63.75850284984341L342.617625,62.62501805446425L344.84856510416665,64.57711616111925L347.07950520833333,64.41969918599358L349.3104453125,63.75850284984341L351.5413854166666,64.32524524753296L353.7723255208333,69.7092886421209L356.00326562500004,63.94741072676459L358.2342057291667,63.50661316933116L360.46514583333334,64.23077254214638L362.6960859375,64.23077254214638L364.9270260416667,65.52169307957718L367.1579661458333,64.67158886650583L369.38890625,63.41215923087054L371.61984635416667,66.71814091162139L373.85078645833335,62.43609141061705L376.08172656249997,64.8290058416315L378.31266666666664,64.38820828419807L380.5436067708333,62.31014657036093L382.77454687500006,65.58465611624229L385.0054869791666,61.17666177498177L387.23642708333335,63.50661316933116L389.46736718750003,63.97890162856015L391.6983072916667,65.52169307957718L393.92924739583333,64.76604280496645L396.1601875,63.28621439061442L398.3911276041667,73.95984724132973L400.6220677083333,58.09107887294766L402.8530078125,56.6427413603912L405.08394791666666,56.20192503603175L407.31488802083334,56.17045290116221L409.54582812499996,55.6351826383422L411.77676822916663,55.38331172475591L414.00770833333337,55.38331172475591L416.23864843750005,55.855600183984905L418.46958854166667,55.099931142448156L420.70052864583334,55.099931142448156L422.93146875,55.0369681057831L425.16240885416664,55.41478385962546L427.3933489583333,55.44627476142102L429.6242890625,55.099931142448156L431.8552291666667,54.75358752347529L434.0861692708333,54.50169784296304L436.317109375,54.690624486810236L438.54804947916665,54.91102326552698L440.7789895833334,54.470225708093494L443.00992968749995,54.722115388605744L445.2408697916667,54.34428086783737L447.47180989583336,54.218336027581245L449.70275000000004,54.40724390450248L451.93369010416666,54.75358752347529L454.16463020833334,54.218336027581245L456.3955703125,54.722115388605744L458.62651041666663,54.690624486810236L460.8574505208333,54.533188744758604L463.088390625,54.09239118732512L465.31933072916667,54.56467964655411L467.5502708333333,54.31278996604186L469.78121093749996,54.34428086783737L472.0121510416667,54.218336027581245L474.2430911458334,54.15537299091619L476.47403125,54.375771769632934L478.7049713541667,54.65913358501473L480.93591145833335,54.75358752347529L483.1668515625,54.43873480629799L485.39779166666665,54.81656932706636L487.6287317708333,54.470225708093494L489.859671875,54.690624486810236L492.0906119791666,54.56467964655411L494.3215520833333,54.43873480629799L496.5524921875,54.31278996604186L498.7834322916667,54.24982692937681L501.0143723958333,54.533188744758604L503.2453125,54.470225708093494L505.4762526041667,54.56467964655411L507.70719270833337,54.91102326552698L509.9381328125,55.13142204424366L512.1690729166667,55.25736688449979L514.4000130208334,54.690624486810236L516.630953125,54.50169784296304L518.8618932291666,54.722115388605744L521.0928333333334,54.785078425270854L523.3237734375,54.34428086783737L525.5547135416666,54.690624486810236L527.7856536458333,54.470225708093494L530.01659375,55.06844024065265L532.2475338541667,54.59617054834962L534.4784739583333,54.15537299091619L536.7094140625,54.690624486810236L538.9403541666667,54.02942815066007L541.1712942708334,54.06090028552961L543.4022343749999,53.58863059322664L545.6331744791667,54.15537299091619L547.8641145833334,53.93497421219945L550.0950546875,54.40724390450248L552.3259947916666,54.690624486810236L554.5569348958334,54.34428086783737L556.787875,54.281299064246355L559.0188151041666,54.31278996604186L561.2497552083333,53.93497421219945L563.4806953125,53.90348331040394L565.7116354166667,54.06090028552961L567.9425755208333,54.375771769632934L570.173515625,54.123882089120684L572.4044557291667,54.123882089120684L574.6353958333334,53.93497421219945L576.8663359375,53.84050150681287L579.0972760416666,53.90348331040394L581.3282161458334,54.15537299091619L583.55915625,53.809029371943325L585.7900963541666,53.93497421219945L588.0210364583334,53.966446347068995L590.2519765625,53.99793724886456L592.4829166666666,54.06090028552961L594.7138567708333,53.809029371943325L596.9447968750001,53.84050150681287L599.1757369791667,53.77753847014782L601.4066770833333,54.281299064246355L603.6376171875,53.871992408608435L605.8685572916667,54.15537299091619L608.0994973958334,53.966446347068995L610.3304375,53.65159362989169L612.5613776041666,53.90348331040394L614.7923177083334,53.99793724886456" fill="none"></path></g></g></g></g></g></g><g transform="translate(68, 377)" clip-path="url(#clip_1)"><clipPath id="clip_1"><rect width="684" height="22"></rect></clipPath><g><g><line x1="0" y1="0" x2="0" y2="5" style="visibility: inherit;" fill="rgb(0, 0, 0)" stroke="rgb(204, 204, 204)" stroke-width="1px"></line><line x1="57.057291666666664" y1="0" x2="57.057291666666664" y2="5" style="visibility: inherit;" fill="rgb(0, 0, 0)" stroke="rgb(204, 204, 204)" stroke-width="1px"></line><line x1="114.11458333333333" y1="0" x2="114.11458333333333" y2="5" style="visibility: inherit;" fill="rgb(0, 0, 0)" stroke="rgb(204, 204, 204)" stroke-width="1px"></line><line x1="171.171875" y1="0" x2="171.171875" y2="5" style="visibility: inherit;" fill="rgb(0, 0, 0)" stroke="rgb(204, 204, 204)" stroke-width="1px"></line><line x1="228.22916666666666" y1="0" x2="228.22916666666666" y2="5" style="visibility: inherit;" fill="rgb(0, 0, 0)" stroke="rgb(204, 204, 204)" stroke-width="1px"></line><line x1="285.28645833333337" y1="0" x2="285.28645833333337" y2="5" style="visibility: inherit;" fill="rgb(0, 0, 0)" stroke="rgb(204, 204, 204)" stroke-width="1px"></line><line x1="342.34375" y1="0" x2="342.34375" y2="5" style="visibility: inherit;" fill="rgb(0, 0, 0)" stroke="rgb(204, 204, 204)" stroke-width="1px"></line><line x1="399.4010416666667" y1="0" x2="399.4010416666667" y2="5" style="visibility: inherit;" fill="rgb(0, 0, 0)" stroke="rgb(204, 204, 204)" stroke-width="1px"></line><line x1="456.4583333333333" y1="0" x2="456.4583333333333" y2="5" style="visibility: inherit;" fill="rgb(0, 0, 0)" stroke="rgb(204, 204, 204)" stroke-width="1px"></line><line x1="513.515625" y1="0" x2="513.515625" y2="5" style="visibility: inherit;" fill="rgb(0, 0, 0)" stroke="rgb(204, 204, 204)" stroke-width="1px"></line><line x1="570.5729166666667" y1="0" x2="570.5729166666667" y2="5" style="visibility: inherit;" fill="rgb(0, 0, 0)" stroke="rgb(204, 204, 204)" stroke-width="1px"></line><line x1="627.6302083333333" y1="0" x2="627.6302083333333" y2="5" style="visibility: inherit;" fill="rgb(0, 0, 0)" stroke="rgb(204, 204, 204)" stroke-width="1px"></line><line x1="684.6875" y1="0" x2="684.6875" y2="5" style="visibility: inherit;" fill="rgb(0, 0, 0)" stroke="rgb(204, 204, 204)" stroke-width="1px"></line></g><g transform="translate(0, 8)"><text style="text-anchor: middle; visibility: hidden; font-family: &quot;Helvetica Neue&quot;, sans-serif; font-size: 12px; font-weight: 200;" x="0" y="0" dx="0em" dy="0.95em" fill="rgb(50, 49, 63)" stroke="none" stroke-width="1px">-10.00k</text><text style="text-anchor: middle; visibility: inherit; font-family: &quot;Helvetica Neue&quot;, sans-serif; font-size: 12px; font-weight: 200;" x="57.057291666666664" y="0" dx="0em" dy="0.95em" fill="rgb(50, 49, 63)" stroke="none" stroke-width="1px">0.000</text><text style="text-anchor: middle; visibility: inherit; font-family: &quot;Helvetica Neue&quot;, sans-serif; font-size: 12px; font-weight: 200;" x="114.11458333333333" y="0" dx="0em" dy="0.95em" fill="rgb(50, 49, 63)" stroke="none" stroke-width="1px">10.00k</text><text style="text-anchor: middle; visibility: inherit; font-family: &quot;Helvetica Neue&quot;, sans-serif; font-size: 12px; font-weight: 200;" x="171.171875" y="0" dx="0em" dy="0.95em" fill="rgb(50, 49, 63)" stroke="none" stroke-width="1px">20.00k</text><text style="text-anchor: middle; visibility: inherit; font-family: &quot;Helvetica Neue&quot;, sans-serif; font-size: 12px; font-weight: 200;" x="228.22916666666666" y="0" dx="0em" dy="0.95em" fill="rgb(50, 49, 63)" stroke="none" stroke-width="1px">30.00k</text><text style="text-anchor: middle; visibility: inherit; font-family: &quot;Helvetica Neue&quot;, sans-serif; font-size: 12px; font-weight: 200;" x="285.28645833333337" y="0" dx="0em" dy="0.95em" fill="rgb(50, 49, 63)" stroke="none" stroke-width="1px">40.00k</text><text style="text-anchor: middle; visibility: inherit; font-family: &quot;Helvetica Neue&quot;, sans-serif; font-size: 12px; font-weight: 200;" x="342.34375" y="0" dx="0em" dy="0.95em" fill="rgb(50, 49, 63)" stroke="none" stroke-width="1px">50.00k</text><text style="text-anchor: middle; visibility: inherit; font-family: &quot;Helvetica Neue&quot;, sans-serif; font-size: 12px; font-weight: 200;" x="399.4010416666667" y="0" dx="0em" dy="0.95em" fill="rgb(50, 49, 63)" stroke="none" stroke-width="1px">60.00k</text><text style="text-anchor: middle; visibility: inherit; font-family: &quot;Helvetica Neue&quot;, sans-serif; font-size: 12px; font-weight: 200;" x="456.4583333333333" y="0" dx="0em" dy="0.95em" fill="rgb(50, 49, 63)" stroke="none" stroke-width="1px">70.00k</text><text style="text-anchor: middle; visibility: inherit; font-family: &quot;Helvetica Neue&quot;, sans-serif; font-size: 12px; font-weight: 200;" x="513.515625" y="0" dx="0em" dy="0.95em" fill="rgb(50, 49, 63)" stroke="none" stroke-width="1px">80.00k</text><text style="text-anchor: middle; visibility: inherit; font-family: &quot;Helvetica Neue&quot;, sans-serif; font-size: 12px; font-weight: 200;" x="570.5729166666667" y="0" dx="0em" dy="0.95em" fill="rgb(50, 49, 63)" stroke="none" stroke-width="1px">90.00k</text><text style="text-anchor: middle; visibility: inherit; font-family: &quot;Helvetica Neue&quot;, sans-serif; font-size: 12px; font-weight: 200;" x="627.6302083333333" y="0" dx="0em" dy="0.95em" fill="rgb(50, 49, 63)" stroke="none" stroke-width="1px">100.0k</text><text style="text-anchor: middle; visibility: hidden; font-family: &quot;Helvetica Neue&quot;, sans-serif; font-size: 12px; font-weight: 200;" x="684.6875" y="0" dx="0em" dy="0.95em" fill="rgb(50, 49, 63)" stroke="none" stroke-width="1px">110.0k</text></g><line x1="0" y1="0" x2="684.6875" y2="0" fill="rgb(0, 0, 0)" stroke="rgb(204, 204, 204)" stroke-width="1px"></line></g></g></g></g></svg>